<svg width="200" height="200" viewBox="0 0 200 200" fill="none" xmlns="http://www.w3.org/2000/svg">
  <rect width="200" height="200" fill="#68896F" />
  <g transform="translate(50, 40)">
    <!-- Crescent moon -->
    <path d="M50 0 C53 3, 56 10, 50 20 C44 10, 47 3, 50 0Z" fill="#F8F4E6" />
    <!-- Star -->
    <circle cx="50" cy="15" r="3" fill="#F8F4E6" />
    <!-- Dome -->
    <path d="M30 30 C30 20, 70 20, 70 30 C80 35, 90 40, 85 45 C75 55, 25 55, 15 45 C10 40, 20 35, 30 30Z" fill="#F8F4E6" />
    <!-- Central dome -->
    <path d="M45 30 C45 25, 55 25, 55 30 C60 35, 65 40, 60 42 C55 47, 45 47, 40 42 C35 40, 40 35, 45 30Z" fill="#68896F" />
    <!-- Book pages -->
    <path d="M25 60 C25 55, 50 45, 75 60 C60 65, 40 65, 25 60Z" fill="#F8F4E6" />
    <path d="M25 65 C25 60, 50 50, 75 65 C60 70, 40 70, 25 65Z" fill="#F8F4E6" />
  </g>
  <text x="100" y="150" font-family="Arial" font-size="12" text-anchor="middle" fill="#F8F4E6">MADRASAH</text>
  <text x="100" y="170" font-family="Arial" font-size="14" font-weight="bold" text-anchor="middle" fill="#F8F4E6">ABU BAKR AS-SIDDIQ</text>
</svg>